<svg xmlns="http://www.w3.org/2000/svg" xmlns:xlink="http://www.w3.org/1999/xlink" width="500" zoomAndPan="magnify" viewBox="0 0 375 74.999997" height="100" preserveAspectRatio="xMidYMid meet" version="1.0"><defs><g/></defs><g fill="#9e896c" fill-opacity="1"><g transform="translate(32.83129, 45.726275)"><g><path d="M 8.15625 -25.03125 L 8.15625 0 L 3.234375 0 L 3.234375 -25.03125 Z M 8.15625 -25.03125 "/></g></g></g><g fill="#9e896c" fill-opacity="1"><g transform="translate(64.177964, 45.726275)"><g><path d="M 25.765625 -25.03125 L 25.765625 1.015625 L 25.640625 1.015625 L 8.125 -14.796875 L 8.234375 0 L 3.234375 0 L 3.234375 -26.015625 L 3.4375 -26.015625 L 20.90625 -9.96875 L 20.8125 -25.03125 Z M 25.765625 -25.03125 "/></g></g></g><g fill="#9e896c" fill-opacity="1"><g transform="translate(113.134624, 45.726275)"><g><path d="M 18.390625 -25.03125 L 18.390625 -20.265625 L 12.3125 -20.265625 L 12.3125 0 L 7.375 0 L 7.375 -20.265625 L 1.53125 -20.265625 L 1.53125 -25.03125 Z M 18.390625 -25.03125 "/></g></g></g><g fill="#9e896c" fill-opacity="1"><g transform="translate(153.014316, 45.726275)"><g><path d="M 20.296875 -25.03125 L 20.296875 -20.265625 L 8.15625 -20.265625 L 8.15625 -14.921875 L 18.90625 -14.921875 L 18.90625 -10.171875 L 8.15625 -10.171875 L 8.15625 -4.765625 L 20.78125 -4.765625 L 20.78125 0 L 3.234375 0 L 3.234375 -25.03125 Z M 20.296875 -25.03125 "/></g></g></g><g fill="#9e896c" fill-opacity="1"><g transform="translate(195.613708, 45.726275)"><g><path d="M 16.734375 0 L 11.453125 -7.953125 L 8.15625 -7.953125 L 8.15625 0 L 3.234375 0 L 3.234375 -25.03125 L 10.8125 -25.03125 C 13.914062 -25.03125 16.320312 -24.273438 18.03125 -22.765625 C 19.75 -21.253906 20.609375 -19.195312 20.609375 -16.59375 C 20.609375 -15.050781 20.285156 -13.601562 19.640625 -12.25 C 18.992188 -10.90625 18 -9.847656 16.65625 -9.078125 L 22.46875 0 Z M 8.15625 -12.71875 L 11.65625 -12.71875 C 13 -12.71875 13.972656 -13.109375 14.578125 -13.890625 C 15.191406 -14.671875 15.5 -15.515625 15.5 -16.421875 C 15.5 -17.328125 15.238281 -18.191406 14.71875 -19.015625 C 14.195312 -19.847656 13.191406 -20.265625 11.703125 -20.265625 L 8.15625 -20.265625 Z M 8.15625 -12.71875 "/></g></g></g><g fill="#9e896c" fill-opacity="1"><g transform="translate(238.893017, 45.726275)"><g/></g></g><g fill="#9e896c" fill-opacity="1"><g transform="translate(269.899729, 45.726275)"><g><path d="M 1.703125 -12.484375 C 1.703125 -14.742188 2.273438 -16.859375 3.421875 -18.828125 C 4.566406 -20.804688 6.117188 -22.378906 8.078125 -23.546875 C 10.035156 -24.710938 12.160156 -25.296875 14.453125 -25.296875 C 16.742188 -25.296875 18.867188 -24.710938 20.828125 -23.546875 C 22.785156 -22.378906 24.347656 -20.804688 25.515625 -18.828125 C 26.679688 -16.859375 27.265625 -14.742188 27.265625 -12.484375 C 27.265625 -10.171875 26.679688 -8.035156 25.515625 -6.078125 C 24.347656 -4.128906 22.785156 -2.582031 20.828125 -1.4375 C 18.867188 -0.300781 16.742188 0.265625 14.453125 0.265625 C 12.140625 0.265625 10.007812 -0.300781 8.0625 -1.4375 C 6.113281 -2.582031 4.566406 -4.128906 3.421875 -6.078125 C 2.273438 -8.035156 1.703125 -10.171875 1.703125 -12.484375 Z M 6.796875 -12.484375 C 6.796875 -11.023438 7.140625 -9.679688 7.828125 -8.453125 C 8.523438 -7.234375 9.46875 -6.265625 10.65625 -5.546875 C 11.84375 -4.835938 13.164062 -4.484375 14.625 -4.484375 C 16.03125 -4.484375 17.3125 -4.835938 18.46875 -5.546875 C 19.625 -6.265625 20.53125 -7.226562 21.1875 -8.4375 C 21.84375 -9.65625 22.171875 -11.003906 22.171875 -12.484375 C 22.171875 -13.972656 21.828125 -15.328125 21.140625 -16.546875 C 20.460938 -17.773438 19.539062 -18.742188 18.375 -19.453125 C 17.207031 -20.171875 15.910156 -20.53125 14.484375 -20.53125 C 13.054688 -20.53125 11.757812 -20.171875 10.59375 -19.453125 C 9.425781 -18.742188 8.5 -17.773438 7.8125 -16.546875 C 7.132812 -15.328125 6.796875 -13.972656 6.796875 -12.484375 Z M 6.796875 -12.484375 "/></g></g></g><g fill="#9e896c" fill-opacity="1"><g transform="translate(318.822393, 45.726275)"><g><path d="M 16.734375 0 L 11.453125 -7.953125 L 8.15625 -7.953125 L 8.15625 0 L 3.234375 0 L 3.234375 -25.03125 L 10.8125 -25.03125 C 13.914062 -25.03125 16.320312 -24.273438 18.03125 -22.765625 C 19.75 -21.253906 20.609375 -19.195312 20.609375 -16.59375 C 20.609375 -15.050781 20.285156 -13.601562 19.640625 -12.25 C 18.992188 -10.90625 18 -9.847656 16.65625 -9.078125 L 22.46875 0 Z M 8.15625 -12.71875 L 11.65625 -12.71875 C 13 -12.71875 13.972656 -13.109375 14.578125 -13.890625 C 15.191406 -14.671875 15.5 -15.515625 15.5 -16.421875 C 15.5 -17.328125 15.238281 -18.191406 14.71875 -19.015625 C 14.195312 -19.847656 13.191406 -20.265625 11.703125 -20.265625 L 8.15625 -20.265625 Z M 8.15625 -12.71875 "/></g></g></g><g fill="#9e896c" fill-opacity="1"><g transform="translate(32.52251, 13.676272)"><g><path d="M 0.1875 -1.109375 C 0.1875 -1.265625 0.25 -1.40625 0.375 -1.53125 C 0.507812 -1.65625 0.613281 -1.738281 0.6875 -1.78125 C 0.757812 -1.832031 0.8125 -1.867188 0.84375 -1.890625 C 0.882812 -1.117188 1.40625 -0.734375 2.40625 -0.734375 C 3.1875 -0.734375 4.101562 -0.976562 5.15625 -1.46875 C 5.894531 -1.8125 6.394531 -2.160156 6.65625 -2.515625 C 6.738281 -2.617188 6.78125 -2.707031 6.78125 -2.78125 C 6.78125 -2.851562 6.765625 -2.910156 6.734375 -2.953125 L 1.46875 -4.140625 C 1.320312 -4.171875 1.175781 -4.242188 1.03125 -4.359375 C 0.769531 -4.546875 0.640625 -4.710938 0.640625 -4.859375 C 0.640625 -5.441406 1.050781 -5.972656 1.875 -6.453125 C 2.789062 -6.960938 4.015625 -7.351562 5.546875 -7.625 C 5.890625 -7.675781 6.148438 -7.707031 6.328125 -7.71875 C 6.378906 -7.695312 6.457031 -7.679688 6.5625 -7.671875 C 6.664062 -7.660156 6.769531 -7.644531 6.875 -7.625 C 7.144531 -7.5625 7.257812 -7.445312 7.21875 -7.28125 C 7.21875 -7 6.664062 -6.773438 5.5625 -6.609375 C 4.132812 -6.390625 3.242188 -6.207031 2.890625 -6.0625 C 2.546875 -5.925781 2.296875 -5.78125 2.140625 -5.625 C 1.984375 -5.46875 1.898438 -5.285156 1.890625 -5.078125 C 1.890625 -5.035156 1.984375 -4.988281 2.171875 -4.9375 C 2.367188 -4.882812 2.601562 -4.820312 2.875 -4.75 C 3.144531 -4.675781 3.5 -4.582031 3.9375 -4.46875 C 4.988281 -4.175781 6.273438 -3.8125 7.796875 -3.375 C 7.878906 -3.1875 7.921875 -3.015625 7.921875 -2.859375 C 7.921875 -2.410156 7.660156 -1.976562 7.140625 -1.5625 C 6.546875 -1.09375 5.722656 -0.695312 4.671875 -0.375 C 3.796875 -0.113281 3.101562 0.015625 2.59375 0.015625 C 2.15625 0.015625 1.742188 -0.0546875 1.359375 -0.203125 C 0.972656 -0.359375 0.679688 -0.507812 0.484375 -0.65625 C 0.285156 -0.800781 0.1875 -0.953125 0.1875 -1.109375 Z M 0.1875 -1.109375 "/></g></g></g><g fill="#9e896c" fill-opacity="1"><g transform="translate(46.073503, 13.676272)"><g><path d="M 1.328125 -0.203125 C 1.328125 -0.0546875 1.226562 0.015625 1.03125 0.015625 C 0.875 0.015625 0.691406 -0.0546875 0.484375 -0.203125 C 0.378906 -0.429688 0.328125 -0.976562 0.328125 -1.84375 C 0.328125 -2.707031 0.332031 -3.421875 0.34375 -3.984375 C 0.363281 -4.546875 0.382812 -5.0625 0.40625 -5.53125 C 0.457031 -6.5625 0.484375 -7.109375 0.484375 -7.171875 C 0.722656 -7.316406 0.921875 -7.390625 1.078125 -7.390625 C 1.242188 -7.390625 1.328125 -7.316406 1.328125 -7.171875 Z M 1.328125 -0.203125 "/></g></g></g><g fill="#9e896c" fill-opacity="1"><g transform="translate(53.240674, 13.676272)"><g><path d="M 1.5625 -2.125 L 1.609375 -1.1875 C 1.609375 -1.144531 1.601562 -1.054688 1.59375 -0.921875 C 1.59375 -0.785156 1.546875 -0.660156 1.453125 -0.546875 C 1.359375 -0.441406 1.238281 -0.390625 1.09375 -0.390625 C 0.957031 -0.390625 0.851562 -0.394531 0.78125 -0.40625 C 0.5 -0.40625 0.359375 -0.53125 0.359375 -0.78125 C 0.359375 -0.976562 0.453125 -1.796875 0.640625 -3.234375 C 0.828125 -4.671875 0.941406 -5.59375 0.984375 -6 C 1.035156 -6.414062 1.082031 -6.765625 1.125 -7.046875 C 1.164062 -7.335938 1.191406 -7.550781 1.203125 -7.6875 C 1.222656 -7.820312 1.25 -7.957031 1.28125 -8.09375 C 1.3125 -8.226562 1.363281 -8.335938 1.4375 -8.421875 C 1.5625 -8.578125 1.804688 -8.65625 2.171875 -8.65625 C 2.773438 -8.351562 3.398438 -7.488281 4.046875 -6.0625 C 4.503906 -5.050781 4.804688 -4.410156 4.953125 -4.140625 C 5.109375 -3.867188 5.257812 -3.679688 5.40625 -3.578125 L 7.953125 -8 C 8.128906 -8.125 8.265625 -8.1875 8.359375 -8.1875 C 8.628906 -8.1875 8.832031 -8.0625 8.96875 -7.8125 C 9.113281 -7.570312 9.234375 -7.273438 9.328125 -6.921875 C 9.429688 -6.578125 9.519531 -6.191406 9.59375 -5.765625 C 9.664062 -5.335938 9.726562 -4.894531 9.78125 -4.4375 C 9.832031 -3.976562 9.882812 -3.523438 9.9375 -3.078125 C 10.0625 -2.023438 10.15625 -1.363281 10.21875 -1.09375 C 10.28125 -0.820312 10.3125 -0.628906 10.3125 -0.515625 C 10.3125 -0.398438 10.269531 -0.289062 10.1875 -0.1875 C 10.113281 -0.0820312 10.007812 -0.03125 9.875 -0.03125 C 9.738281 -0.03125 9.601562 -0.0820312 9.46875 -0.1875 C 9.332031 -0.289062 9.25 -0.421875 9.21875 -0.578125 C 9.1875 -0.734375 9.15625 -0.9375 9.125 -1.1875 C 9.101562 -1.445312 9.070312 -1.734375 9.03125 -2.046875 C 8.988281 -2.367188 8.945312 -2.703125 8.90625 -3.046875 C 8.863281 -3.398438 8.816406 -3.738281 8.765625 -4.0625 C 8.722656 -4.382812 8.6875 -4.671875 8.65625 -4.921875 C 8.625 -5.171875 8.597656 -5.359375 8.578125 -5.484375 C 8.578125 -5.648438 8.570312 -5.804688 8.5625 -5.953125 C 8.5625 -6.097656 8.53125 -6.1875 8.46875 -6.21875 C 8.40625 -6.25 8.3125 -6.207031 8.1875 -6.09375 C 8.070312 -5.976562 7.90625 -5.75 7.6875 -5.40625 C 7.207031 -4.664062 6.519531 -3.425781 5.625 -1.6875 C 5.507812 -1.476562 5.351562 -1.429688 5.15625 -1.546875 C 4.925781 -1.671875 4.734375 -2 4.578125 -2.53125 L 2.234375 -7.484375 C 2.035156 -7.078125 1.847656 -5.734375 1.671875 -3.453125 C 1.648438 -3.171875 1.632812 -2.9375 1.625 -2.75 C 1.582031 -2.53125 1.5625 -2.320312 1.5625 -2.125 Z M 1.5625 -2.125 "/></g></g></g><g fill="#9e896c" fill-opacity="1"><g transform="translate(69.190361, 13.676272)"><g><path d="M 1.046875 0.03125 L 0.484375 0 L 0.484375 -2.953125 C 0.523438 -3.585938 0.554688 -4.148438 0.578125 -4.640625 C 0.609375 -5.140625 0.65625 -5.566406 0.71875 -5.921875 C 0.789062 -6.273438 0.898438 -6.570312 1.046875 -6.8125 C 1.203125 -7.050781 1.429688 -7.242188 1.734375 -7.390625 C 2.285156 -7.660156 3.300781 -7.796875 4.78125 -7.796875 C 5.40625 -7.796875 5.9375 -7.734375 6.375 -7.609375 C 6.820312 -7.484375 7.148438 -7.367188 7.359375 -7.265625 C 7.847656 -7.023438 8.09375 -6.691406 8.09375 -6.265625 C 8.09375 -5.847656 7.96875 -5.46875 7.71875 -5.125 C 7.476562 -4.78125 7.164062 -4.484375 6.78125 -4.234375 C 6.394531 -3.984375 5.960938 -3.773438 5.484375 -3.609375 C 5.003906 -3.453125 4.519531 -3.320312 4.03125 -3.21875 C 3.175781 -3.050781 2.347656 -2.96875 1.546875 -2.96875 L 1.5 -0.125 C 1.5 -0.0195312 1.347656 0.03125 1.046875 0.03125 Z M 1.53125 -4.40625 C 1.53125 -3.976562 1.710938 -3.765625 2.078125 -3.765625 C 2.128906 -3.765625 2.21875 -3.765625 2.34375 -3.765625 C 2.476562 -3.773438 2.703125 -3.789062 3.015625 -3.8125 C 3.328125 -3.832031 3.660156 -3.875 4.015625 -3.9375 C 4.378906 -4 4.738281 -4.082031 5.09375 -4.1875 C 5.457031 -4.289062 5.78125 -4.421875 6.0625 -4.578125 C 6.71875 -4.929688 7.046875 -5.378906 7.046875 -5.921875 C 6.921875 -6.472656 6.414062 -6.828125 5.53125 -6.984375 C 5.269531 -7.035156 5.035156 -7.0625 4.828125 -7.0625 C 4.617188 -7.0625 4.375 -7.050781 4.09375 -7.03125 C 3.8125 -7.007812 3.484375 -6.941406 3.109375 -6.828125 C 2.734375 -6.722656 2.421875 -6.578125 2.171875 -6.390625 C 1.921875 -6.203125 1.78125 -5.984375 1.75 -5.734375 C 1.738281 -5.640625 1.71875 -5.523438 1.6875 -5.390625 C 1.582031 -4.953125 1.53125 -4.625 1.53125 -4.40625 Z M 1.53125 -4.40625 "/></g></g></g><g fill="#9e896c" fill-opacity="1"><g transform="translate(82.677897, 13.676272)"><g><path d="M 1.015625 -5.546875 L 0.984375 -8.703125 L 2 -8.671875 L 1.890625 -1.234375 L 8.578125 -1.046875 C 8.710938 -1.003906 8.78125 -0.929688 8.78125 -0.828125 C 8.78125 -0.722656 8.71875 -0.617188 8.59375 -0.515625 C 8.351562 -0.285156 8.070312 -0.171875 7.75 -0.171875 C 7.675781 -0.171875 7.597656 -0.179688 7.515625 -0.203125 L 0.703125 -0.265625 C 0.910156 -1.054688 1.015625 -2.816406 1.015625 -5.546875 Z M 1.015625 -5.546875 "/></g></g></g><g fill="#9e896c" fill-opacity="1"><g transform="translate(96.876157, 13.676272)"><g><path d="M 4.484375 -8.0625 C 5.328125 -8.0625 5.890625 -8.003906 6.171875 -7.890625 L 6.171875 -7.28125 C 5.941406 -7.238281 5.628906 -7.21875 5.234375 -7.21875 C 4.835938 -7.21875 4.414062 -7.210938 3.96875 -7.203125 C 2.707031 -7.171875 1.847656 -7.109375 1.390625 -7.015625 C 1.253906 -6.335938 1.1875 -5.875 1.1875 -5.625 C 1.195312 -5.375 1.207031 -5.179688 1.21875 -5.046875 C 1.25 -4.722656 1.265625 -4.335938 1.265625 -3.890625 C 1.847656 -3.890625 2.507812 -3.9375 3.25 -4.03125 C 3.988281 -4.132812 4.5625 -4.207031 4.96875 -4.25 C 5.375 -4.300781 5.789062 -4.328125 6.21875 -4.328125 L 6.21875 -3.625 L 1.359375 -3.015625 L 1.4375 -0.9375 C 2.269531 -0.9375 3.125 -0.976562 4 -1.0625 C 4.875 -1.144531 5.535156 -1.203125 5.984375 -1.234375 C 6.441406 -1.273438 6.925781 -1.296875 7.4375 -1.296875 C 7.4375 -1.128906 7.382812 -0.96875 7.28125 -0.8125 C 7.082031 -0.539062 6.898438 -0.460938 6.734375 -0.578125 C 5.242188 -0.410156 3.910156 -0.28125 2.734375 -0.1875 C 1.566406 -0.09375 0.78125 -0.03125 0.375 0 L 0.4375 -8.09375 C 0.65625 -8.03125 1.0625 -8 1.65625 -8 Z M 4.484375 -8.0625 "/></g></g></g><g fill="#9e896c" fill-opacity="1"><g transform="translate(190.948, 71.249993)"><g><path d="M 57.519531 -58.007812 C 57.8125 -57.910156 57.910156 -57.910156 57.910156 -58.105469 C 57.910156 -58.300781 57.421875 -58.980469 57.230469 -58.980469 C 57.132812 -58.980469 56.9375 -59.660156 56.9375 -60.246094 C 56.9375 -61.023438 58.300781 -62.289062 60.441406 -63.457031 L 61.898438 -64.140625 L 63.554688 -64.820312 L 65.5 -65.695312 C 68.617188 -67.058594 72.410156 -67.933594 76.402344 -68.226562 L 77.765625 -68.421875 L 85.941406 -68.714844 C 87.59375 -68.714844 89.445312 -68.714844 90.804688 -68.617188 L 93.335938 -68.421875 C 93.53125 -68.421875 93.726562 -68.421875 93.921875 -68.226562 C 94.40625 -67.933594 95.1875 -67.933594 95.285156 -68.324219 C 95.382812 -68.519531 94.796875 -69.101562 94.40625 -69.199219 L 89.445312 -69.394531 L 88.664062 -69.394531 L 85.0625 -69.296875 C 83.117188 -69.296875 80.878906 -69.296875 80.199219 -69.199219 L 77.570312 -69.003906 C 76.207031 -68.90625 74.941406 -68.808594 74.359375 -68.714844 L 72.800781 -68.519531 C 71.535156 -68.324219 69.976562 -67.933594 69.394531 -67.738281 L 67.738281 -67.253906 C 66.085938 -66.765625 65.695312 -66.667969 62.679688 -65.308594 C 58.785156 -63.652344 57.421875 -62.777344 56.546875 -61.511719 C 56.0625 -60.730469 56.0625 -60.636719 56.15625 -59.953125 C 56.351562 -58.882812 56.742188 -58.203125 57.519531 -58.007812 Z M 25.597656 -5.742188 C 25.792969 -5.742188 25.988281 -6.035156 26.179688 -6.328125 C 26.570312 -7.105469 27.347656 -8.273438 27.835938 -8.953125 L 31.144531 -12.945312 L 35.523438 -18.101562 L 37.957031 -21.121094 L 39.613281 -23.066406 L 43.214844 -27.347656 C 43.40625 -27.738281 43.699219 -28.03125 43.699219 -28.128906 C 43.699219 -28.324219 50.707031 -36.011719 52.265625 -37.664062 L 53.628906 -39.027344 L 56.449219 -42.238281 L 62.386719 -48.566406 C 70.953125 -57.910156 73.09375 -60.246094 76.207031 -63.164062 C 77.960938 -64.917969 79.128906 -65.792969 79.417969 -65.792969 C 79.808594 -65.695312 80.488281 -66.960938 80.296875 -67.449219 C 80.101562 -68.03125 79.90625 -67.933594 78.738281 -67.058594 L 76.890625 -65.402344 C 75.527344 -64.234375 74.84375 -63.652344 74.359375 -62.972656 C 74.066406 -62.679688 73.773438 -62.484375 73.773438 -62.484375 C 73.675781 -62.484375 73.675781 -62.484375 70.953125 -59.5625 C 69.003906 -57.617188 67.546875 -56.0625 67.15625 -55.476562 L 65.988281 -54.210938 L 64.527344 -52.75 L 63.945312 -52.070312 L 57.421875 -45.0625 C 55.476562 -43.019531 53.238281 -40.390625 53.238281 -40.195312 C 53.238281 -40.097656 53.140625 -40 53.140625 -40.097656 C 52.945312 -40.097656 50.316406 -37.277344 47.984375 -34.648438 C 47.203125 -33.675781 46.425781 -32.898438 46.328125 -32.898438 C 46.132812 -32.800781 46.035156 -32.703125 46.035156 -32.605469 C 46.035156 -32.507812 45.257812 -31.535156 44.1875 -30.367188 C 43.117188 -29.199219 41.753906 -27.542969 41.167969 -26.765625 L 38.738281 -23.84375 C 38.054688 -23.066406 37.375 -22.191406 37.082031 -21.800781 C 36.886719 -21.410156 36.59375 -21.21875 36.59375 -21.21875 C 36.496094 -21.316406 36.402344 -21.316406 36.402344 -21.121094 C 36.402344 -20.925781 34.355469 -18.394531 33.089844 -17.03125 L 32.117188 -15.960938 L 30.5625 -14.015625 L 28.710938 -11.582031 C 28.03125 -10.707031 27.835938 -10.511719 27.542969 -10.21875 C 27.25 -9.925781 27.25 -9.925781 26.179688 -7.980469 C 25.402344 -6.617188 25.207031 -5.644531 25.597656 -5.742188 Z M 9.828125 1.847656 C 10.023438 2.140625 10.316406 1.847656 10.414062 1.265625 C 10.707031 -0.777344 13.722656 -2.335938 19.953125 -3.699219 C 21.605469 -3.992188 22.578125 -4.183594 24.625 -4.378906 L 26.960938 -4.769531 C 27.542969 -4.867188 28.90625 -4.964844 31.730469 -4.964844 C 32.3125 -4.964844 32.898438 -4.867188 32.992188 -4.867188 L 33.871094 -4.671875 C 34.355469 -4.671875 35.039062 -4.574219 35.328125 -4.378906 C 36.011719 -4.085938 36.304688 -4.28125 36.109375 -4.867188 C 36.011719 -5.160156 35.914062 -5.253906 35.234375 -5.351562 C 34.066406 -5.644531 29.296875 -5.644531 27.542969 -5.449219 L 23.652344 -4.964844 L 21.703125 -4.671875 L 20.535156 -4.476562 L 17.03125 -3.699219 L 15.476562 -3.210938 C 12.164062 -2.238281 9.734375 -0.390625 9.734375 1.070312 C 9.734375 1.460938 9.734375 1.75 9.828125 1.847656 Z M 9.828125 1.847656 "/></g></g></g><g fill="#9e896c" fill-opacity="1"><g transform="translate(239.678895, 89.570692)"><g><path d="M 2.046875 -21.179688 L 4.449219 -24.117188 C 6.761719 -27.144531 9.523438 -30.167969 11.035156 -31.414062 L 12.636719 -32.929688 L 13.882812 -33.90625 L 15.21875 -34.886719 C 15.753906 -35.242188 17.355469 -36.308594 17.800781 -36.753906 L 19.132812 -37.824219 C 20.203125 -38.535156 22.605469 -40.492188 23.496094 -41.472656 C 25.097656 -43.074219 25.898438 -43.964844 26.699219 -45.03125 C 27.410156 -46.011719 27.589844 -46.277344 27.5 -46.632812 C 27.410156 -47.167969 26.964844 -47.078125 25.988281 -46.542969 C 25.628906 -46.277344 24.828125 -45.742188 24.382812 -45.296875 L 22.871094 -44.140625 C 22.070312 -43.609375 20.558594 -42.183594 19.222656 -40.757812 C 18.15625 -39.601562 17.886719 -39.335938 16.464844 -38 L 15.574219 -37.109375 L 12.101562 -33.550781 C 11.480469 -32.929688 10.054688 -31.949219 8.632812 -31.238281 C 7.832031 -30.882812 6.941406 -30.347656 6.496094 -30.082031 L 5.074219 -29.191406 L 4.449219 -28.835938 L 4.183594 -29.101562 C 3.558594 -29.902344 2.582031 -29.8125 0.800781 -28.835938 C -0.355469 -28.210938 -2.492188 -26.34375 -3.203125 -25.273438 C -3.828125 -24.382812 -3.558594 -23.851562 -2.582031 -24.207031 C -1.691406 -24.472656 -0.265625 -25.1875 0.445312 -25.628906 L 0.800781 -25.808594 C 0.890625 -25.808594 1.246094 -26.074219 1.691406 -26.34375 L 2.582031 -26.789062 L 3.382812 -27.234375 L 6.40625 -29.101562 C 7.207031 -29.546875 7.832031 -29.902344 7.921875 -29.902344 C 7.921875 -29.902344 7.566406 -29.457031 7.121094 -29.101562 C 5.960938 -27.945312 1.246094 -22.070312 1.246094 -21.714844 C 1.335938 -21.269531 1.78125 -21.003906 2.046875 -21.179688 Z M 16.195312 -36.132812 C 15.753906 -35.953125 16.910156 -37.289062 18.6875 -38.890625 L 19.847656 -40.046875 C 20.46875 -40.847656 21.09375 -41.472656 21.894531 -42.183594 L 22.605469 -42.894531 L 23.761719 -43.875 C 26.164062 -45.65625 26.519531 -45.742188 25.1875 -44.140625 C 24.382812 -43.074219 23.761719 -42.539062 21.625 -40.492188 C 20.824219 -39.78125 19.757812 -38.890625 19.132812 -38.445312 L 17.710938 -37.289062 Z M -1.691406 -25.542969 C -1.957031 -25.542969 -1.335938 -26.253906 -0.535156 -26.964844 L 0.179688 -27.589844 C 0.265625 -27.675781 0.535156 -27.855469 0.980469 -28.035156 L 1.867188 -28.476562 C 2.136719 -28.566406 2.757812 -28.566406 2.9375 -28.476562 C 3.113281 -28.300781 2.667969 -27.765625 1.957031 -27.410156 C 1.511719 -27.144531 1.15625 -26.964844 1.066406 -26.875 C 0.980469 -26.875 0.355469 -26.609375 -0.355469 -26.253906 C -0.980469 -25.898438 -1.601562 -25.542969 -1.691406 -25.542969 Z M -1.691406 -25.542969 "/></g></g></g><g fill="#9e896c" fill-opacity="1"><g transform="translate(269.314685, 89.570692)"><g><path d="M -0.890625 -24.296875 C 0.0898438 -24.472656 0.710938 -24.652344 2.3125 -25.453125 L 6.320312 -27.234375 L 7.476562 -27.765625 C 7.566406 -27.855469 7.566406 -28.121094 7.386719 -28.210938 L 7.296875 -28.300781 L 7.03125 -28.300781 L 6.851562 -28.210938 C 1.957031 -26.074219 -0.980469 -25.007812 -1.511719 -25.1875 C -1.691406 -25.273438 -1.691406 -25.363281 -1.425781 -25.628906 C -1.246094 -25.988281 -1.066406 -26.074219 -0.445312 -26.253906 C 0.535156 -26.519531 1.425781 -26.964844 2.9375 -28.035156 C 4.359375 -29.011719 4.984375 -29.546875 4.894531 -29.8125 C 4.714844 -30.347656 3.914062 -30.257812 2.492188 -29.722656 C 0.710938 -29.101562 -1.335938 -27.5 -2.226562 -26.074219 C -2.667969 -25.363281 -2.757812 -25.097656 -2.582031 -24.742188 C -2.492188 -24.117188 -2.3125 -24.117188 -0.890625 -24.296875 Z M -0.179688 -27.234375 C -0.0898438 -27.5 1.425781 -28.566406 2.046875 -28.746094 C 2.582031 -29.011719 3.472656 -29.367188 3.472656 -29.191406 C 3.382812 -29.101562 2.046875 -28.210938 1.246094 -27.765625 C 0.265625 -27.234375 -0.355469 -27.054688 -0.179688 -27.234375 Z M -0.179688 -27.234375 "/></g></g></g><g fill="#9e896c" fill-opacity="1"><g transform="translate(291.920095, 89.570692)"><g><path d="M 1.957031 -24.296875 C 2.3125 -24.207031 2.667969 -24.207031 3.027344 -24.296875 L 3.292969 -24.296875 C 3.292969 -24.296875 4.894531 -24.652344 6.585938 -25.453125 L 11.660156 -27.765625 C 11.835938 -27.855469 11.835938 -28.121094 11.660156 -28.210938 L 11.570312 -28.300781 L 11.300781 -28.300781 L 11.125 -28.210938 C 7.207031 -26.519531 4.539062 -25.453125 3.382812 -25.1875 C 3.382812 -25.1875 2.226562 -24.828125 2.136719 -25.1875 C 1.78125 -25.988281 2.402344 -26.964844 2.847656 -27.5 C 3.203125 -27.945312 4.09375 -29.011719 3.027344 -29.011719 C 2.847656 -29.011719 2.582031 -29.101562 2.582031 -29.191406 C 2.492188 -29.546875 2.226562 -29.457031 0.710938 -28.65625 C -0.621094 -27.945312 -2.3125 -26.875 -3.382812 -25.988281 C -3.828125 -25.628906 -4.003906 -25.453125 -4.003906 -25.1875 C -4.003906 -24.742188 -3.738281 -24.652344 -3.203125 -24.652344 C -2.757812 -24.652344 -0.980469 -25.542969 -0.265625 -26.074219 C 0.445312 -26.699219 1.601562 -27.320312 1.601562 -27.234375 L 1.335938 -26.609375 C 1.15625 -26.34375 1.066406 -25.988281 1.066406 -25.71875 C 0.980469 -25.363281 0.980469 -25.097656 1.246094 -24.742188 C 1.425781 -24.472656 1.601562 -24.296875 1.957031 -24.296875 Z M -3.027344 -25.453125 L -2.492188 -25.808594 C -1.957031 -26.34375 -0.535156 -27.320312 0.621094 -27.855469 C 1.511719 -28.390625 1.691406 -28.390625 1.691406 -28.210938 C 1.691406 -28.121094 1.425781 -27.945312 1.15625 -27.855469 C 0.445312 -27.5 0.0898438 -27.234375 -0.0898438 -27.054688 C -0.265625 -26.875 -1.78125 -25.988281 -2.492188 -25.628906 Z M -3.027344 -25.453125 "/></g></g></g><g fill="#9e896c" fill-opacity="1"><g transform="translate(318.797125, 89.570692)"><g><path d="M -3.382812 -20.023438 C -2.3125 -20.289062 -0.265625 -22.070312 0.0898438 -22.960938 C 0.265625 -23.226562 0.445312 -23.761719 0.535156 -24.117188 C 0.621094 -24.5625 0.800781 -24.828125 1.066406 -25.007812 L 1.957031 -25.363281 C 2.667969 -25.71875 3.828125 -26.074219 4.984375 -26.429688 C 4.273438 -26.164062 6.585938 -26.875 8.1875 -27.320312 C 8.898438 -27.5 9.078125 -27.675781 8.808594 -27.945312 C 8.632812 -28.121094 8.453125 -28.121094 7.921875 -27.945312 C 6.851562 -27.765625 2.226562 -26.519531 1.246094 -25.898438 C 0.621094 -25.628906 0.445312 -25.898438 0.535156 -27.144531 C 0.710938 -28.300781 0.710938 -28.390625 1.15625 -28.476562 C 1.78125 -28.65625 1.957031 -29.011719 1.601562 -29.457031 C 1.335938 -29.722656 1.066406 -29.636719 0.445312 -29.28125 C -0.355469 -28.835938 -0.445312 -28.476562 -0.445312 -26.789062 C -0.445312 -25.988281 -0.535156 -25.273438 -0.535156 -25.097656 C -0.621094 -25.007812 -0.980469 -24.828125 -1.335938 -24.652344 C -1.691406 -24.5625 -1.957031 -24.382812 -2.046875 -24.382812 L -3.027344 -23.671875 C -4.273438 -22.960938 -4.804688 -22.425781 -4.894531 -21.714844 C -4.894531 -21.179688 -4.894531 -21.003906 -4.628906 -20.734375 C -4.449219 -20.558594 -4.273438 -20.289062 -4.273438 -20.289062 C -4.273438 -20.023438 -3.738281 -19.847656 -3.382812 -20.023438 Z M -3.382812 -21.003906 C -3.738281 -21.003906 -4.09375 -21.359375 -4.09375 -21.714844 C -4.09375 -22.25 -2.582031 -23.140625 -2.402344 -23.226562 L -1.511719 -23.761719 L -0.890625 -24.117188 L -0.890625 -23.671875 C -0.980469 -23.140625 -1.15625 -22.871094 -2.136719 -21.894531 C -2.667969 -21.359375 -3.203125 -21.003906 -3.382812 -21.003906 Z M -3.382812 -21.003906 "/></g></g></g></svg>